<?xml version="1.0" encoding="UTF-8"?>
<!DOCTYPE svg PUBLIC "-//W3C//DTD SVG 1.1//EN" "http://www.w3.org/Graphics/SVG/1.1/DTD/svg11.dtd">
<!-- Creator: CorelDRAW X7 -->
<svg xmlns="http://www.w3.org/2000/svg" xml:space="preserve" width="50.2mm" height="50.2mm" version="1.1" style="shape-rendering:geometricPrecision; text-rendering:geometricPrecision; image-rendering:optimizeQuality; fill-rule:evenodd; clip-rule:evenodd"
viewBox="0 0 267 267"
 xmlns:xlink="http://www.w3.org/1999/xlink">
 <defs>
  <style type="text/css">
   <![CDATA[
    .str0 {stroke:white;stroke-width:10.6306}
    .fil0 {fill:none}
    .fil1 {fill:white}
   ]]>
  </style>
 </defs>
 <g id="Слой_x0020_1">
  <metadata id="CorelCorpID_0Corel-Layer"/>
  <circle class="fil0 str0" cx="133" cy="133" r="128"/>
  <g id="_1019819584">
   <path class="fil1" d="M181 107c0,-6 5,-11 11,-11 5,0 10,5 10,10 0,6 -5,10 -10,10 -3,0 -6,3 -6,6 0,3 3,5 6,5 11,0 20,-9 20,-21 0,-11 -9,-21 -20,-21 -11,0 -20,8 -21,18 -7,3 -13,4 -19,4 0,0 0,0 0,0 -13,0 -23,-6 -33,-11 -6,-4 -12,-7 -19,-10 -5,-1 -10,-2 -14,-2 -18,0 -30,11 -30,11 -1,2 -2,3 -1,5 0,2 1,4 3,4 16,7 25,18 33,28 9,10 18,21 33,25 -5,5 -10,12 -10,21 0,3 2,5 5,5l36 0c0,0 0,0 0,0 3,0 5,-2 5,-5 0,-1 0,-1 0,-1 0,-9 -5,-16 -10,-21 18,-7 31,-30 31,-49zm-55 65c2,-5 8,-9 11,-11 3,2 9,6 11,11l-22 0zm34 -37c-6,8 -14,13 -23,13 -18,0 -27,-10 -37,-23 -8,-9 -16,-19 -30,-27 4,-2 9,-3 16,-3 3,0 7,0 11,2 6,2 11,5 17,8 11,6 22,13 38,13 0,0 0,0 0,0 6,0 12,-1 18,-3 -2,7 -5,14 -10,20z"/>
   <g>
   </g>
   <g>
   </g>
   <g>
   </g>
   <g>
   </g>
   <g>
   </g>
   <g>
   </g>
   <g>
   </g>
   <g>
   </g>
   <g>
   </g>
   <g>
   </g>
   <g>
   </g>
   <g>
   </g>
   <g>
   </g>
   <g>
   </g>
   <g>
   </g>
  </g>
  <path class="fil1" d="M131 155c-13,-8 -37,-27 -71,-59 18,-6 34,-6 47,0 26,15 48,20 65,14 2,26 -12,41 -41,45z"/>
 </g>
</svg>
