<?xml version="1.0" encoding="UTF-8"?>
<!DOCTYPE svg PUBLIC "-//W3C//DTD SVG 1.1//EN" "http://www.w3.org/Graphics/SVG/1.1/DTD/svg11.dtd">
<!-- Creator: CorelDRAW X7 -->
<svg xmlns="http://www.w3.org/2000/svg" xml:space="preserve" width="50.2mm" height="50.2mm" version="1.1" style="shape-rendering:geometricPrecision; text-rendering:geometricPrecision; image-rendering:optimizeQuality; fill-rule:evenodd; clip-rule:evenodd"
viewBox="0 0 23779 23779"
 xmlns:xlink="http://www.w3.org/1999/xlink">
 <defs>
  <style type="text/css">
   <![CDATA[
    .str0 {stroke:white;stroke-width:947.384}
    .fil0 {fill:none}
    .fil1 {fill:white}
   ]]>
  </style>
 </defs>
 <g id="Слой_x0020_1">
  <metadata id="CorelCorpID_0Corel-Layer"/>
  <circle class="fil0 str0" cx="11890" cy="11890" r="11416"/>
  <g id="_1020351072">
   <g>
    <g>
     <g>
      <path class="fil1" d="M10419 10492c-320,0 -580,263 -580,587 0,325 260,588 580,588 320,0 580,-263 580,-588 0,-324 -260,-587 -580,-587z"/>
      <path class="fil1" d="M13356 10487c-323,0 -585,265 -585,592 0,327 262,592 585,592 323,0 585,-265 585,-592 0,-327 -262,-592 -585,-592z"/>
      <path class="fil1" d="M10961 15332c-252,0 -457,206 -457,462 0,255 205,462 457,462 251,0 456,-207 456,-462 0,-256 -205,-462 -456,-462z"/>
      <path class="fil1" d="M12815 16260c254,0 460,-209 460,-466 0,-257 -206,-466 -460,-466 -254,0 -460,209 -460,466 0,257 206,466 460,466z"/>
      <path class="fil1" d="M18890 7740l-161 -362 -377 120c-1079,342 -2338,737 -2894,911 -188,-152 -400,-286 -634,-400 -131,-64 -266,-121 -402,-170 171,-399 342,-1025 342,-1940l-884 0c0,723 -123,1204 -227,1481 -34,91 -68,167 -99,228 -607,-112 -1200,-131 -1664,-131 -465,0 -1057,19 -1664,131 -31,-61 -66,-137 -100,-228 -103,-277 -227,-758 -227,-1481l-884 0c0,915 171,1541 343,1940 -137,49 -271,106 -402,170 -234,114 -446,248 -635,400 -556,-174 -1814,-569 -2894,-911l-377 -120 -161 362c-207,466 -371,1151 23,1766 503,782 1648,1023 2320,1097 -9,114 -14,231 -14,351 0,1064 245,1717 556,2543 103,275 210,560 321,893 288,864 635,1756 1227,2419 644,721 1483,1071 2568,1071 1084,0 1924,-350 2567,-1071 592,-663 940,-1555 1227,-2419 111,-333 218,-618 322,-893 310,-826 555,-1479 555,-2543 0,-120 -5,-237 -14,-351 672,-74 1818,-315 2320,-1097 395,-615 230,-1300 23,-1766zm-11486 1991c-558,-56 -1450,-239 -1748,-703 -114,-177 -116,-381 -83,-557 767,243 1566,494 2108,664 -112,184 -205,383 -277,596zm4486 7265c-1298,0 -1984,-607 -2517,-1748 594,-511 1528,-819 2517,-819 988,0 1922,308 2516,819 -532,1141 -1218,1748 -2516,1748zm3288 -3810c-101,270 -216,576 -332,925 -32,96 -65,190 -97,282 -745,-539 -1767,-848 -2859,-848 -1092,0 -2114,309 -2860,848 -32,-92 -64,-186 -96,-282 -116,-349 -231,-655 -333,-925 -290,-771 -499,-1329 -499,-2232 0,-1039 406,-1743 1242,-2151 608,-297 1440,-442 2546,-442 1105,0 1938,145 2545,442 836,408 1242,1112 1242,2151 0,903 -209,1461 -499,2232zm2946 -4159c-296,462 -1190,646 -1749,703 -72,-212 -164,-411 -277,-595 542,-170 1341,-421 2108,-664 33,176 31,379 -82,556z"/>
     </g>
    </g>
   </g>
   <g>
   </g>
   <g>
   </g>
   <g>
   </g>
   <g>
   </g>
   <g>
   </g>
   <g>
   </g>
   <g>
   </g>
   <g>
   </g>
   <g>
   </g>
   <g>
   </g>
   <g>
   </g>
   <g>
   </g>
   <g>
   </g>
   <g>
   </g>
   <g>
   </g>
  </g>
 </g>
</svg>
