<?xml version="1.0" encoding="UTF-8"?>
<!DOCTYPE svg PUBLIC "-//W3C//DTD SVG 1.1//EN" "http://www.w3.org/Graphics/SVG/1.1/DTD/svg11.dtd">
<!-- Creator: CorelDRAW X7 -->
<svg xmlns="http://www.w3.org/2000/svg" xml:space="preserve" width="50.2mm" height="50.2mm" version="1.1" style="shape-rendering:geometricPrecision; text-rendering:geometricPrecision; image-rendering:optimizeQuality; fill-rule:evenodd; clip-rule:evenodd"
viewBox="0 0 1735 1735"
 xmlns:xlink="http://www.w3.org/1999/xlink"
 enable-background="new 0 0 425.48 425.48">
 <defs>
  <style type="text/css">
   <![CDATA[
    .str0 {stroke:white;stroke-width:69.1376}
    .fil0 {fill:none}
    .fil1 {fill:white}
   ]]>
  </style>
 </defs>
 <g id="Слой_x0020_1">
  <metadata id="CorelCorpID_0Corel-Layer"/>
  <circle class="fil0 str0" cx="868" cy="868" r="833"/>
  <g id="_1018738416">
   <g>
    <path class="fil1" d="M1287 633l-47 -92c-4,-7 -8,-13 -12,-19l9 -30c5,-13 -3,-28 -16,-33 -14,-4 -29,3 -33,17l-3 9c-2,-1 -4,-2 -5,-2l0 -32c0,-14 -11,-26 -26,-26 -14,0 -26,11 -26,26l0 19c-2,0 -4,0 -5,0l-12 -23c-6,-13 -22,-18 -35,-12 -13,6 -18,22 -12,35l6 12c-2,0 -4,1 -5,2 -1,0 -1,0 -1,1l-20 -15c-11,-8 -28,-5 -36,6 -8,12 -6,28 6,36l9 7c-34,39 -104,93 -199,128 -78,29 -196,53 -320,6 -7,-2 -14,-2 -20,1 -7,2 -11,8 -14,14 -36,97 -32,201 11,295 43,93 120,164 216,200 15,5 30,9 45,13l63 82 -5 0c-15,0 -26,12 -26,26 0,15 11,26 26,26l113 0c15,0 26,-11 26,-26 0,-14 -11,-26 -26,-26l-42 0 -56 -72c4,0 9,0 14,0 55,0 110,-12 162,-36 93,-44 164,-121 199,-217 3,-8 5,-16 7,-24 20,-68 13,-136 -19,-195l97 -45c6,-3 11,-9 13,-15 3,-7 2,-14 -1,-21l0 0zm-146 282c-30,83 -91,150 -172,188 -81,37 -171,41 -254,11 -83,-31 -150,-92 -187,-173 -7,-16 -14,-33 -18,-50 7,3 14,6 22,9 3,0 5,1 8,1 11,0 21,-8 24,-19 5,-14 -3,-28 -17,-32 -28,-9 -43,-24 -49,-31 0,-6 0,-12 0,-17 12,4 27,7 46,9 1,0 2,0 2,0 14,0 25,-10 26,-24 1,-14 -9,-27 -23,-28 -25,-2 -39,-8 -47,-12 3,-12 5,-25 9,-37 127,40 253,19 355,-23 4,27 17,52 38,72 23,21 52,33 83,34 15,27 39,48 68,58 14,5 29,8 43,8 20,0 40,-5 58,-14 -1,16 -4,33 -9,50 -1,6 -4,13 -6,20zm-12 -236c-7,3 -12,10 -14,17 -2,8 -1,16 4,22 15,22 26,45 32,70l-18 10c-18,10 -40,11 -60,4 -20,-7 -36,-22 -44,-42l-2 -3c-4,-11 -15,-18 -27,-16 -22,3 -44,-5 -60,-20 -16,-15 -25,-36 -24,-58 70,-37 124,-82 154,-120 4,-5 11,-9 18,-12 19,-10 40,-12 60,-5 20,6 36,20 45,38l35 69 -99 46 0 0z"/>
    <path class="fil1" d="M1128 550c-7,0 -13,3 -18,7 -5,5 -8,12 -8,19 0,7 3,13 8,18 5,5 11,8 18,8 7,0 14,-3 19,-8 4,-5 7,-11 7,-18 0,-7 -3,-14 -7,-19 -5,-4 -12,-7 -19,-7z"/>
   </g>
  </g>
 </g>
</svg>
