<?xml version="1.0" encoding="UTF-8"?>
<!DOCTYPE svg PUBLIC "-//W3C//DTD SVG 1.1//EN" "http://www.w3.org/Graphics/SVG/1.1/DTD/svg11.dtd">
<!-- Creator: CorelDRAW X7 -->
<svg xmlns="http://www.w3.org/2000/svg" xml:space="preserve" width="50.2mm" height="50.2mm" version="1.1" style="shape-rendering:geometricPrecision; text-rendering:geometricPrecision; image-rendering:optimizeQuality; fill-rule:evenodd; clip-rule:evenodd"
viewBox="0 0 1914 1914"
 xmlns:xlink="http://www.w3.org/1999/xlink">
 <defs>
  <style type="text/css">
   <![CDATA[
    .str0 {stroke:white;stroke-width:76.2672}
    .fil0 {fill:none}
    .fil1 {fill:white}
   ]]>
  </style>
 </defs>
 <g id="Слой_x0020_1">
  <metadata id="CorelCorpID_0Corel-Layer"/>
  <circle class="fil0 str0" cx="957" cy="957" r="919"/>
  <g id="_1019158640">
   <g>
    <g>
     <path class="fil1" d="M1293 808c-40,-46 -90,-74 -130,-97 -15,-8 -28,-15 -40,-23 -66,-43 -92,-139 -93,-139l-6 -24 -134 0 -6 23c0,1 -26,97 -93,140 -11,8 -25,15 -40,23 -40,23 -90,51 -129,97 -47,55 -70,124 -70,212 0,105 55,188 158,239 51,25 105,39 151,46l-22 51 58 25 28 -65 0 74 64 0 0 -74 28 65 59 -25 -23 -51c46,-7 100,-21 151,-46 103,-51 158,-134 158,-239 0,-88 -23,-157 -69,-212zm-117 394c-88,44 -190,47 -219,47 -29,0 -131,-3 -219,-47 -81,-40 -122,-102 -122,-182 0,-161 88,-210 166,-253 16,-9 31,-17 44,-25 64,-42 98,-116 112,-154l39 0c13,38 47,112 111,154 14,8 28,16 44,25 78,43 166,92 166,253 0,80 -41,142 -122,182z"/>
    </g>
   </g>
   <g>
    <g>
     <path class="fil1" d="M780 812c-36,18 -62,52 -77,77 -20,32 -33,68 -39,102l63 11c9,-55 46,-115 81,-133l-28 -57z"/>
    </g>
   </g>
   <g>
   </g>
   <g>
   </g>
   <g>
   </g>
   <g>
   </g>
   <g>
   </g>
   <g>
   </g>
   <g>
   </g>
   <g>
   </g>
   <g>
   </g>
   <g>
   </g>
   <g>
   </g>
   <g>
   </g>
   <g>
   </g>
   <g>
   </g>
   <g>
   </g>
  </g>
 </g>
</svg>
