<?xml version="1.0" encoding="UTF-8"?>
<!DOCTYPE svg PUBLIC "-//W3C//DTD SVG 1.1//EN" "http://www.w3.org/Graphics/SVG/1.1/DTD/svg11.dtd">
<!-- Creator: CorelDRAW X7 -->
<svg xmlns="http://www.w3.org/2000/svg" xml:space="preserve" width="50.2mm" height="50.2mm" version="1.1" style="shape-rendering:geometricPrecision; text-rendering:geometricPrecision; image-rendering:optimizeQuality; fill-rule:evenodd; clip-rule:evenodd"
viewBox="0 0 1735 1735"
 xmlns:xlink="http://www.w3.org/1999/xlink">
 <defs>
  <style type="text/css">
   <![CDATA[
    .str0 {stroke:white;stroke-width:69.1376}
    .fil0 {fill:none}
    .fil1 {fill:white}
   ]]>
  </style>
 </defs>
 <g id="Слой_x0020_1">
  <metadata id="CorelCorpID_0Corel-Layer"/>
  <circle class="fil0 str0" cx="868" cy="868" r="833"/>
  <g id="_1018755792">
   <g>
    <g>
     <path class="fil1" d="M1267 847c0,0 0,0 0,0l-299 -298c-96,-97 -245,-110 -356,-40l0 -71 -58 0 0 102 -102 0 0 58 71 0c-29,45 -45,98 -45,154 0,76 30,148 84,202l299 299c29,29 68,44 114,44 16,0 33,-2 50,-6 62,-13 125,-49 178,-102 53,-52 89,-116 102,-178 14,-67 1,-125 -38,-164zm-444 242c-3,13 -5,26 -6,39l-214 -214c-43,-44 -67,-101 -67,-162 0,-62 24,-119 67,-163 90,-89 235,-89 324,0l215 215c-13,0 -26,2 -39,5 -62,13 -126,49 -178,102 -53,53 -89,116 -102,178zm426 -90c-11,52 -42,105 -87,149 -45,45 -98,76 -149,87 -47,10 -87,2 -111,-23 -25,-24 -33,-64 -23,-111 11,-51 42,-104 87,-149 44,-45 98,-76 149,-87 13,-2 26,-4 37,-4 31,0 56,9 74,27 25,25 33,64 23,111z"/>
    </g>
   </g>
   <g>
    <g>
     <path class="fil1" d="M1212 922c-15,-15 -37,-20 -61,-15 -20,4 -40,15 -56,31 -37,37 -44,88 -16,116 12,12 27,18 44,18 24,0 51,-12 73,-34 16,-16 27,-35 31,-55 5,-24 -1,-46 -15,-61zm-57 75c-16,16 -31,18 -35,16 -1,-3 1,-19 16,-34 16,-16 31,-17 35,-16 1,3 -1,19 -16,34z"/>
    </g>
   </g>
   <g>
    <g>
     <path class="fil1" d="M869 607c-27,-21 -58,-38 -87,-48l-18 56c49,15 98,55 109,89l55 -18c-12,-35 -39,-62 -59,-79z"/>
    </g>
   </g>
   <g>
   </g>
   <g>
   </g>
   <g>
   </g>
   <g>
   </g>
   <g>
   </g>
   <g>
   </g>
   <g>
   </g>
   <g>
   </g>
   <g>
   </g>
   <g>
   </g>
   <g>
   </g>
   <g>
   </g>
   <g>
   </g>
   <g>
   </g>
   <g>
   </g>
  </g>
 </g>
</svg>
