<?xml version="1.0" encoding="UTF-8"?>
<!DOCTYPE svg PUBLIC "-//W3C//DTD SVG 1.1//EN" "http://www.w3.org/Graphics/SVG/1.1/DTD/svg11.dtd">
<!-- Creator: CorelDRAW X7 -->
<svg xmlns="http://www.w3.org/2000/svg" xml:space="preserve" width="50.2mm" height="50.2mm" version="1.1" style="shape-rendering:geometricPrecision; text-rendering:geometricPrecision; image-rendering:optimizeQuality; fill-rule:evenodd; clip-rule:evenodd"
viewBox="0 0 914 914"
 xmlns:xlink="http://www.w3.org/1999/xlink">
 <defs>
  <style type="text/css">
   <![CDATA[
    .str0 {stroke:white;stroke-width:36.429}
    .fil0 {fill:none}
    .fil1 {fill:white}
   ]]>
  </style>
 </defs>
 <g id="Слой_x0020_1">
  <metadata id="CorelCorpID_0Corel-Layer"/>
  <circle class="fil0 str0" cx="457" cy="457" r="439"/>
  <g id="_1020353504">
   <g>
    <g>
     <path class="fil1" d="M702 416c-19,-73 -65,-113 -100,-135 -38,-23 -72,-28 -73,-29l-6 0 -319 158 0 202 499 0 0 -194 -1 -2zm-174 -130c10,2 32,8 57,23 38,23 64,55 79,95l-374 0 238 -118zm7 150c-6,11 -18,19 -31,19 -13,0 -24,-8 -30,-19l61 0zm11 143c5,-10 15,-17 27,-17 12,0 23,7 28,17l-55 0zm124 0l-35 0c-6,-28 -32,-49 -62,-49 -30,0 -55,21 -62,49l-274 0 0 -143 202 0c8,30 34,51 65,51 32,0 58,-21 65,-51l101 0 0 143 0 0z"/>
    </g>
   </g>
   <g>
    <g>
     <path class="fil1" d="M318 455c-29,0 -53,24 -53,54 0,29 24,53 53,53 30,0 54,-24 54,-53 0,-30 -24,-54 -54,-54zm0 75c-11,0 -21,-10 -21,-21 0,-12 10,-22 21,-22 12,0 22,10 22,22 0,11 -10,21 -22,21z"/>
    </g>
   </g>
   <g>
   </g>
   <g>
   </g>
   <g>
   </g>
   <g>
   </g>
   <g>
   </g>
   <g>
   </g>
   <g>
   </g>
   <g>
   </g>
   <g>
   </g>
   <g>
   </g>
   <g>
   </g>
   <g>
   </g>
   <g>
   </g>
   <g>
   </g>
   <g>
   </g>
  </g>
 </g>
</svg>
