<?xml version="1.0" encoding="UTF-8"?>
<!DOCTYPE svg PUBLIC "-//W3C//DTD SVG 1.1//EN" "http://www.w3.org/Graphics/SVG/1.1/DTD/svg11.dtd">
<!-- Creator: CorelDRAW X7 -->
<svg xmlns="http://www.w3.org/2000/svg" xml:space="preserve" width="50.2mm" height="50.2mm" version="1.1" style="shape-rendering:geometricPrecision; text-rendering:geometricPrecision; image-rendering:optimizeQuality; fill-rule:evenodd; clip-rule:evenodd"
viewBox="0 0 23779 23779"
 xmlns:xlink="http://www.w3.org/1999/xlink">
 <defs>
  <style type="text/css">
   <![CDATA[
    .str0 {stroke:white;stroke-width:947.384}
    .fil0 {fill:none}
    .fil1 {fill:white}
   ]]>
  </style>
 </defs>
 <g id="Слой_x0020_1">
  <metadata id="CorelCorpID_0Corel-Layer"/>
  <circle class="fil0 str0" cx="11890" cy="11890" r="11416"/>
  <g id="_1018752432">
   <g>
    <path class="fil1" d="M17535 10162c-301,-740 -866,-1547 -1590,-2272 -1128,-1127 -2401,-1827 -3323,-1827 -358,0 -662,108 -882,314 -254,191 -2404,1895 -2661,4853 -165,1893 -1229,2243 -1307,2266 -142,33 -251,139 -292,279 -41,142 4,293 108,397l218 218 -253 252c-140,-62 -292,-96 -447,-97 -3,0 -6,0 -9,0 -289,0 -560,109 -762,309 -430,424 -436,1119 -12,1549 179,182 410,294 661,321 22,242 125,479 309,665 205,209 479,325 772,327 3,0 5,0 8,0 289,0 562,-111 768,-315 329,-324 409,-807 239,-1209l264 -264 355 355c76,77 180,118 285,118 36,0 72,-5 107,-14 140,-39 249,-150 284,-291 3,-11 309,-1139 2237,-1341 2987,-312 4699,-2468 4850,-2666 384,-416 411,-1097 73,-1927zm-2161 -1701c651,650 1153,1362 1414,2005 207,508 236,924 75,1085 -68,67 -182,102 -338,102 -578,0 -1653,-492 -2752,-1591 -650,-651 -1153,-1363 -1414,-2005 -207,-509 -235,-924 -75,-1085 68,-68 182,-102 338,-102 578,0 1653,492 2752,1591zm-7096 7958c111,113 110,296 -3,408 -55,54 -127,83 -204,83 -77,-1 -149,-32 -203,-86 -112,-114 -110,-297 3,-409 80,-78 120,-183 120,-287 0,-102 -38,-204 -116,-283 -156,-159 -411,-161 -570,-4 -54,53 -126,82 -202,82 -1,0 -2,0 -2,0 -77,0 -149,-31 -203,-86 -112,-113 -110,-296 3,-408 68,-67 151,-78 196,-78 1,0 2,0 3,0 82,1 162,34 218,92 76,76 179,120 286,120 1,0 1,0 2,0 107,0 209,-42 285,-118l485 -485 397 397 -493 493c-156,157 -157,411 -2,569zm4250 -2466c-1549,162 -2301,853 -2652,1366l-1327 -1326c512,-355 1196,-1117 1333,-2693 139,-1592 924,-2790 1550,-3510 39,180 99,371 180,570 301,741 866,1547 1591,2272 937,937 1975,1579 2828,1769 -721,616 -1915,1386 -3503,1552z"/>
    <path class="fil1" d="M14834 9001c448,448 695,929 552,1072 -144,144 -624,-103 -1072,-552 -449,-448 -696,-928 -552,-1072 143,-144 623,104 1072,552z"/>
   </g>
   <g>
   </g>
   <g>
   </g>
   <g>
   </g>
   <g>
   </g>
   <g>
   </g>
   <g>
   </g>
   <g>
   </g>
   <g>
   </g>
   <g>
   </g>
   <g>
   </g>
   <g>
   </g>
   <g>
   </g>
   <g>
   </g>
   <g>
   </g>
   <g>
   </g>
  </g>
 </g>
</svg>
